<svg xmlns="http://www.w3.org/2000/svg" width="512" height="512" viewBox="0 0 512 512" id="nerd-man">
  <path fill="#4e901e" d="M312,344l104.81,22.06a80.021,80.021,0,0,1,60.44,56.31L496,496H16l18.75-73.63a80.021,80.021,0,0,1,60.44-56.31L200,344Z"></path>
  <path fill="#ffc477" d="M312 304v40c0 30.93-25.07 48-56 48s-56-17.07-56-48V304zM140 168h12a0 0 0 010 0v64a0 0 0 010 0H140a20 20 0 01-20-20V188A20 20 0 01140 168z"></path>
  <path fill="#ffc477" d="M380,168h12a0,0,0,0,1,0,0v64a0,0,0,0,1,0,0H380a20,20,0,0,1-20-20V188a20,20,0,0,1,20-20Z" transform="rotate(180 376 200)"></path>
  <path fill="#5f4d37" d="M315.43,126.86,320,104c-10.91,13.09-28.37,22.61-47.99,29.54C219.7,152,152,152,152,152V120a104,104,0,0,1,208,0c-32,24-48,24-48,24Z"></path>
  <path fill="#ffc477" d="M360,120V224a104,104,0,1,1-208,0V152s67.7,0,120.01-18.46c19.62-6.93,37.08-16.45,47.99-29.54l-4.57,22.86L312,144S328,144,360,120Z"></path>
  <path fill="#ffdaaa" d="M320,104l-4.57,22.86-43.42,6.68C291.63,126.61,309.09,117.09,320,104Z"></path>
  <circle cx="208" cy="208" r="8" fill="#ffdaaa"></circle>
  <circle cx="304" cy="208" r="8" fill="#ffdaaa"></circle>
  <circle cx="208" cy="208" r="32" fill="#3d9ae2"></circle>
  <circle cx="304" cy="208" r="32" fill="#3d9ae2"></circle>
  <g>
    <path d="M503.75,494.03,485,420.4c-.02-.08-.04-.15-.06-.23a87.824,87.824,0,0,0-66.48-61.94L320,337.51V315.86A112.136,112.136,0,0,0,366.85,240H372a28.031,28.031,0,0,0,28-28V188a28.031,28.031,0,0,0-28-28h-4V120a112,112,0,0,0-224,0v40h-4a28.031,28.031,0,0,0-28,28v24a28.031,28.031,0,0,0,28,28h5.15A112.136,112.136,0,0,0,192,315.86v21.65L93.54,358.23a87.824,87.824,0,0,0-66.48,61.94c-.02.08-.04.15-.06.23L8.25,494.03A7.99,7.99,0,0,0,16,504H496a7.99,7.99,0,0,0,7.75-9.97ZM368,176h4a12.01,12.01,0,0,1,12,12v24a12.01,12.01,0,0,1-12,12h-4ZM144,224h-4a12.01,12.01,0,0,1-12-12V188a12.01,12.01,0,0,1,12-12h4Zm16-104a96,96,0,0,1,191.91-3.98c-12.99,9.39-22.87,14.38-29.56,17.02l5.49-27.47a8,8,0,0,0-13.99-6.69c-31.6,37.93-125.76,43.98-153.85,44.94Zm0,39.86c25.27-.76,103.17-5.45,147.59-34.59l-3.43,17.16A7.992,7.992,0,0,0,312,152c1.65,0,15.06-.55,40-16.66V200h-8.8a40.005,40.005,0,0,0-78.4.04,7.026,7.026,0,0,0-.8-.04H248a7.026,7.026,0,0,0-.8.04,40.005,40.005,0,0,0-78.4-.04H160ZM328,208a24,24,0,1,1-24-24A24.032,24.032,0,0,1,328,208Zm-96,0a24,24,0,1,1-24-24A24.032,24.032,0,0,1,232,208Zm-72,16v-8h8.8a40.005,40.005,0,0,0,78.4-.04,7.026,7.026,0,0,0,.8.04h16a7.026,7.026,0,0,0,.8-.04,40.005,40.005,0,0,0,78.4.04H352v8a96,96,0,0,1-192,0ZM304,325.18V344c0,14.76-6.46,24.76-15.7,31.07S267.07,384,256,384c-35.43,0-48-21.55-48-40V325.18a111.88,111.88,0,0,0,96,0ZM416,488V456a8,8,0,0,0-16,0v32H112V456a8,8,0,0,0-16,0v32H26.29l16.18-63.54a71.868,71.868,0,0,1,54.37-50.57l95.92-20.19a50.6,50.6,0,0,0,18.63,32.14C222.77,394.97,238.61,400,256,400s33.23-5.03,44.61-14.16a50.6,50.6,0,0,0,18.63-32.14l95.92,20.19a71.868,71.868,0,0,1,54.37,50.57L485.71,488Z"></path>
    <path d="M280,288a8,8,0,0,0-8-8H240a8,8,0,0,0,0,16h32A8,8,0,0,0,280,288Z"></path>
    <circle cx="208" cy="208" r="8"></circle>
    <circle cx="304" cy="208" r="8"></circle>
  </g>
</svg>
